<?xml version="1.0" encoding="utf-8"?>
<!-- Generator: Adobe Illustrator 21.0.0, SVG Export Plug-In . SVG Version: 6.00 Build 0)  -->
<svg version="1.1" id="katman_1" xmlns="http://www.w3.org/2000/svg" xmlns:xlink="http://www.w3.org/1999/xlink" x="0px" y="0px"
	 viewBox="0 0 228.9 228.9" style="enable-background:new 0 0 228.9 228.9;" xml:space="preserve">
<style type="text/css">
	.st0{fill:#0e71b8;}
</style>
<path id="XMLID_66_" class="st0" d="M228.9,114.4c0,63.1-51.3,114.4-114.4,114.4S0,177.5,0,114.4S51.3,0,114.4,0
	c11.3,0,22.4,1.6,33.2,4.9c1.7,0.5,2.7,2.3,2.2,4.1c-0.5,1.7-2.4,2.7-4.1,2.2c-10.1-3.1-20.7-4.6-31.3-4.6
	C54.9,6.5,6.5,54.9,6.5,114.4c0,37,18.7,69.7,47.2,89.1v-45.4h121.5v45.4c28.5-19.4,47.2-52.1,47.2-89.1c0-2.6-0.1-5.4-0.4-8.5
	c-0.1-1.8,1.2-3.4,3-3.5c1.8-0.2,3.4,1.2,3.5,3C228.8,108.7,228.9,111.7,228.9,114.4z M114.4,92.7c-29.2,0-52.8,23.6-52.8,52.8
	c0,1.9,0.1,3.9,0.3,5.7h104.9c0.2-1.9,0.3-3.8,0.3-5.7C167.2,116.3,143.6,92.7,114.4,92.7z M183.6,33.6c5.2-0.5,9-5.2,8.5-10.5
	c-0.5-5.2-5.2-9-10.5-8.5c-5.2,0.5-9,5.2-8.5,10.5C173.7,30.3,178.3,34.1,183.6,33.6z M211.5,54.1c3.6-0.4,6.2-3.6,5.9-7.2
	c-0.4-3.6-3.6-6.2-7.2-5.9c-3.6,0.4-6.2,3.6-5.9,7.2C204.6,51.9,207.8,54.5,211.5,54.1z M147.6,85.7l-5.6,6.4l21.1,18.6l5.6-6.4
	L147.6,85.7z M221.9,81.4c2.2-0.2,3.8-2.2,3.6-4.4c-0.2-2.2-2.2-3.8-4.4-3.6c-2.2,0.2-3.8,2.2-3.6,4.4
	C217.7,80,219.7,81.6,221.9,81.4z"/>
</svg>
